<svg xmlns="http://www.w3.org/2000/svg" version="1.1"  xmlns:xlink="http://www.w3.org/1999/xlink" xmlns:svgjs="http://svgjs.dev/svgjs" width="2000" height="2215" viewBox="0 0 2000 2215"><g transform="matrix(1,0,0,1,-0.650444567608929,0.8984171104664256)"><svg viewBox="0 0 223 247" data-background-color="#ffffff" preserveAspectRatio="xMidYMid meet" height="2215" width="2000" xmlns="http://www.w3.org/2000/svg" xmlns:xlink="http://www.w3.org/1999/xlink"><g id="tight-bounds" transform="matrix(1,0,0,1,0.07252456928839024,-0.09997365579206985)"><svg viewBox="0 0 222.85495086142322 247.2" height="247.2" width="222.85495086142322"><g><svg viewBox="0 0 222.85495086142322 247.2" height="247.2" width="222.85495086142322"><g><svg viewBox="0 0 222.85495086142322 247.2" height="247.2" width="222.85495086142322"><g id="textblocktransform"><svg viewBox="0 0 222.85495086142322 247.2" height="247.2" width="222.85495086142322" id="textblock"><g><svg viewBox="0 0 222.85495086142322 247.2" height="247.2" width="222.85495086142322"><path d="M222.333 53.02C221.286 27.36 218.3 20.227 218.3 20.227 209.132-6.202 197.692-0.506 187.414 3.292 169.268 3.446 151.195 9.091 133.091 12.119 95.091 12.581 56.767 4.986 18.956 23.717 15.404 29.464-3.685 24.846 0.632 56.304 1.763 69.39 5.891 83.913 5.765 95.922 6.331 98.026 7.117 93.202 7.452 96.23 8.626 104.39 10.543 100.541 12.114 105.365 9.925 118.246 11.496 128.971 12.994 140.21 10.354 143.135 6.97 141.749 5.451 151.449 5.294 158.479 4.445 157.145 3.513 156.837 2.832 156.632 1.459 157.402 1.69 159.608 2.476 167.152-0.898 171.514 1.218 178.904-0.238 186.91 2.224 193.838 1.889 202.511 1.847 204.255 2.078 205.744 2.444 206.154 4.068 208.361 1.7 212.672 1.952 217.342 18.61 249.262 36.683 227.195 53.75 241.872 58.181 231.608 54.85 245.516 56.62 243.36 58.003 240.846 59.009 251.263 60.57 245.362 60.811 243.668 60.444 239.665 61.303 240.435 61.754 240.846 62.152 240.743 62.215 238.382 62.309 234.841 61.482 237.048 61.262 235.201 63.64 225.861 63.053 248.081 65.285 247.158 65.18 244.438 64.53 240.538 65.861 241.051 67.181 237.151 67.223 233.918 68.396 242.693 68.438 244.592 68.648 245.926 68.983 246.85 72.65 237.305 76.296 250.237 80.141 245.926 82.498 241.205 84.761 248.492 87.15 246.696 87.988 245.259 88.837 242.693 89.643 247.004 99.523 247.928 110.052 244.079 119.419 247.158 144.448 241.41 171.196 249.518 197.587 241.923 203.81 238.998 210.274 234.841 216.34 231.506 216.34 231.506 221.254 222.371 221.254 181.316S222.302 145.393 222.459 112.703C222.616 80.013 223.349 78.679 222.302 53.02Z" opacity="1" fill="#d498ca" data-fill-palette-color="tertiary"></path><g transform="matrix(1,0,0,1,55.768319999999996,26.230666666666668)"><svg width="111.31831086142323" viewBox="2.25 -35 20.350000381469727 35.599998474121094" height="194.73866666666666" data-palette-color="#ffffff"><path d="M14.3-35Q16.75-35 18.6-34.18 20.45-33.35 22.3-31.65L22.3-31.65 19.95-28.9Q18.55-30.15 17.25-30.73 15.95-31.3 14.4-31.3L14.4-31.3Q7.05-31.3 7.05-17.25L7.05-17.25Q7.05-3.25 14.55-3.25L14.55-3.25Q16.25-3.25 17.53-3.93 18.8-4.6 20.15-5.85L20.15-5.85 22.6-3.2Q21.1-1.55 19.05-0.48 17 0.6 14.45 0.6L14.45 0.6Q8.9 0.6 5.58-3.9 2.25-8.4 2.25-17.25L2.25-17.25Q2.25-23.2 3.83-27.18 5.4-31.15 8.13-33.08 10.85-35 14.3-35L14.3-35Z" opacity="1" transform="matrix(1,0,0,1,0,0)" fill="#ffffff" class="undefined-text-0" data-fill-palette-color="quaternary" id="text-0"></path></svg></g></svg></g></svg></g></svg></g><g></g></svg></g><defs></defs></svg><rect width="222.85495086142322" height="247.2" fill="none" stroke="none" visibility="hidden"></rect></g></svg></g></svg>